# xmcd CD database file
#
# Track frame offsets:
#	150
#	13844
#	33049
#	48459
#	68360
#	93538
#	105590
#	120371
#	140147
#	157149
#	175381
#	198249
#	214368
#	237242
#	260013
#	295249
#	314135
#	334268
#
# Disc length: 4696 seconds
#
# Revision: 0
# Processed by: cddbd v1.5.2PL0 Copyright (c) Steve Scherf et al.
# Submitted via: CDex 2.02
#
DISCID=12125612
DTITLE=Various Artist - Canadian Blues for Gordy Vol. 5
DYEAR=1900
DGENRE=Blues
TTITLE0=Matt Anderson/One Size Never Fits
TTITLE1=Matt Anderson/Tell Me
TTITLE2=Matt Anderson/Rollin' Home
TTITLE3=Matt Anderson/My Old Friend the Blues
TTITLE4=Matt Anderson/Tell Me
TTITLE5=Matt Anderson/Baby Come Back Home
TTITLE6=Matt Anderson/Blue Celtic Rose
TTITLE7=Matt Anderson/You're a Best Seller Baby
TTITLE8=Steve Rowe/One Foot Front
TTITLE9=Steve Rowe/Train to Gratton
TTITLE10=Little Miss Higgins/I'm Gonna Bake My Biscuits
TTITLE11=Little Miss Higgins/The Silverton Swing
TTITLE12=Little Miss Higgins/The Tornado Song
TTITLE13=Little Miss Higgins/Bargain Shop Panties
TTITLE14=Little Miss Higgins/Slaughterhouse (revisited)
TTITLE15=J. W. Jones/Double Eyed Whammy
TTITLE16=J. W. Jones/Heavy Dosage
TTITLE17=J. W. Jones/Tickets on Yourself
EXTD=
EXTT0=
EXTT1=
EXTT2=
EXTT3=
EXTT4=
EXTT5=
EXTT6=
EXTT7=
EXTT8=
EXTT9=
EXTT10=
EXTT11=
EXTT12=
EXTT13=
EXTT14=
EXTT15=
EXTT16=
EXTT17=
PLAYORDER=
